Patient4_TMGait_0pt2_02_left_11_GRF.mot
version=1
nRows=26
nColumns=19
inDegrees=no
endheader
time	F1x	F1y	F1z	M1x	M1y	M1z	F2x	F2y	F2z	M2x	M2y	M2z	EC1x	EC1y	EC1z	EC2x	EC2y	EC2z
25.3	-1.814	1.5135	0.30796	-0.68269	-1.0399	0.6207	-9.4927	871.0539	-23.4313	352.8601	29.8628	802.665	-0.0592	0.0182	-0.0073	-0.0462	0.0165	0.9585
25.3234	-2.3069	1.9199	0.61483	-0.74468	-1.3304	1.1363	-9.4682	871.6893	-20.9206	354.7547	27.2939	801.15	-0.0592	0.0182	-0.0073	-0.0462	0.0165	0.9585
25.3469	-2.5757	2.0978	0.80143	-0.7505	-1.4769	1.4389	-9.828	870.3732	-18.2332	355.8641	24.5611	797.7945	-0.0592	0.0182	-0.0073	-0.0462	0.0165	0.9585
25.3703	-2.4469	1.8969	0.79974	-0.662	-1.3776	1.3827	-10.6341	866.3343	-15.6903	355.6773	21.972	792.0454	-0.0592	0.0182	-0.0073	-0.0462	0.0165	0.9585
25.3937	-1.9774	1.384	0.64252	-0.49789	-1.0743	1.0224	-11.8293	859.2046	-13.604	353.8658	19.8003	783.6403	-0.0592	0.0182	-0.0073	-0.0462	0.0165	0.9585
25.4171	-1.3603	0.74778	0.41566	-0.30841	-0.68947	0.53021	-13.2453	849.0954	-12.2113	350.344	18.227	772.6734	-0.0592	0.0182	-0.0073	-0.0462	0.0165	0.9585
25.4406	-0.749	0.13473	0.18258	-0.13153	-0.31327	0.036674	-14.636	836.5102	-11.6349	345.2515	17.3159	759.5282	-0.0592	0.0182	-0.0073	-0.0462	0.0165	0.9585
25.464	-0.22809	-0.38031	-0.022131	0.014061	0.0083746	-0.39285	-15.7316	822.1151	-11.8721	338.8664	17.0149	744.6908	-0.0592	0.0182	-0.0073	-0.0462	0.0165	0.9585
25.4874	0.16935	-0.77373	-0.18363	0.12304	0.25946	-0.73179	-16.3098	806.5736	-12.8061	331.5298	17.1843	728.6409	-0.0592	0.0182	-0.0073	-0.0462	0.0165	0.9585
25.5109	0.44083	-1.0575	-0.29989	0.19816	0.43853	-0.98823	-16.2545	790.5317	-14.2371	323.6275	17.644	711.8682	-0.0592	0.0182	-0.0073	-0.0462	0.0165	0.9585
25.5343	0.60169	-1.2635	-0.37565	0.24628	0.55212	-1.1861	-15.559	774.7007	-15.9195	315.6092	18.2043	694.9513	-0.0592	0.0182	-0.0073	-0.0462	0.0165	0.9585
25.5577	0.6769	-1.428	-0.41917	0.27733	0.6129	-1.3545	-14.298	759.9136	-17.6117	307.9884	18.6934	678.6009	-0.0592	0.0182	-0.0073	-0.0462	0.0165	0.9585
25.5811	0.69172	-1.5845	-0.44067	0.30261	0.63667	-1.5198	-12.5933	747.0402	-19.1068	301.2857	18.9747	663.5757	-0.0592	0.0182	-0.0073	-0.0462	0.0165	0.9585
25.6046	0.66491	-1.7619	-0.44966	0.3317	0.63865	-1.7031	-10.5549	736.822	-20.2463	295.9432	18.9395	650.5257	-0.0592	0.0182	-0.0073	-0.0462	0.0165	0.9585
25.628	0.61083	-1.9735	-0.45238	0.37114	0.62742	-1.9097	-8.2604	729.7531	-20.9277	292.2615	18.5097	639.8929	-0.0592	0.0182	-0.0073	-0.0462	0.0165	0.9585
25.6514	0.54075	-2.2097	-0.44932	0.42322	0.60397	-2.1242	-5.7727	726.068	-21.1355	290.3808	17.6775	631.9183	-0.0592	0.0182	-0.0073	-0.0462	0.0165	0.9585
25.6749	0.46132	-2.4307	-0.43698	0.48327	0.56636	-2.3076	-3.157	725.7719	-20.9678	290.2868	16.5334	626.6813	-0.0592	0.0182	-0.0073	-0.0462	0.0165	0.9585
25.6983	0.37958	-2.5621	-0.40644	0.53717	0.50996	-2.3901	-0.52064	728.6376	-20.6068	291.8141	15.2533	624.1121	-0.0592	0.0182	-0.0073	-0.0462	0.0165	0.9585
25.7217	0.30784	-2.4903	-0.34745	0.55806	0.42793	-2.2583	1.9538	734.1561	-20.2884	294.6401	14.0817	623.9529	-0.0592	0.0182	-0.0073	-0.0462	0.0165	0.9585
25.7451	0.26368	-2.0537	-0.24903	0.50567	0.31085	-1.7492	4.0403	741.4684	-20.2656	298.2819	13.2927	625.6704	-0.0592	0.0182	-0.0073	-0.0462	0.0165	0.9585
25.7686	0.269	-1.0429	-0.10004	0.3272	0.15003	-0.65814	5.5174	749.3907	-20.7516	302.1402	13.1341	628.4304	-0.0592	0.0182	-0.0073	-0.0462	0.0165	0.9585
25.792	0.35023	0.78259	0.10719	-0.040471	-0.056743	1.2392	6.2854	756.7378	-21.8201	305.6594	13.7016	631.3096	-0.0592	0.0182	-0.0073	-0.0462	0.0165	0.9585
25.8154	0.53938	3.6529	0.37005	-0.66464	-0.29958	4.1462	6.4586	762.5927	-23.3904	308.4363	14.883	633.487	-0.0592	0.0182	-0.0073	-0.0462	0.0165	0.9585
25.8389	0.85492	7.7339	0.66311	-1.6071	-0.55018	8.1932	6.296	766.2811	-25.3259	310.1946	16.4656	634.2564	-0.0592	0.0182	-0.0073	-0.0462	0.0165	0.9585
25.8623	1.2329	13.1326	0.93358	-2.9215	-0.76901	13.4399	6.0336	767.3336	-27.4718	310.7597	18.2336	633.0638	-0.0592	0.0182	-0.0073	-0.0462	0.0165	0.9585
25.8857	1.5991	19.926	1.17	-4.653	-0.95639	19.9084	5.7861	765.5128	-29.6586	310.0659	20.0093	629.572	-0.0592	0.0182	-0.0073	-0.0462	0.0165	0.9585
